<svg id="Layer_1" data-name="Layer 1" xmlns="http://www.w3.org/2000/svg" viewBox="0 0 86.64 86.75"><defs><style>.cls-1{fill:#365461;}.cls-2{fill:#013d4d;}.cls-3{fill:#f6f6f6;}.cls-4{font-size:40.99px;fill:#fff;font-family:Righteous-Regular, Righteous;}</style></defs><path class="cls-1" d="M80.75,80.55l-.19.14c-.22-.24-.41-.49-.64-.72L68.83,68.87l-.28-.29,0,0L68,68l-7.3-7.31L39.26,39.22a4.93,4.93,0,0,1-.49-.42q-9.45-9.42-18.88-18.86c-.19-.19-.34-.41-.52-.61a39.11,39.11,0,0,1,9.28-7.1,43.38,43.38,0,0,1,51,6.13A41.9,41.9,0,0,1,93,44.59C94.58,58.45,90.46,70.49,80.75,80.55Z" transform="translate(-6.68 -6.62)"/><path class="cls-2" d="M80.48,80.81a41.36,41.36,0,0,1-12.9,8.86,43.41,43.41,0,0,1-47.73-8.5,42,42,0,0,1-13-27.44c-1-13.08,3.05-24.4,12.06-33.94.18-.19.39-.36.59-.54a7.6,7.6,0,0,0,.52.61q8,8,16,16.09h0l2.91,2.91.48.5,21,21.12.28.28a.93.93,0,0,0,.16.18l.14.14,6.6,6.65a2.1,2.1,0,0,0,.37.36l.54.53,0,0a1.85,1.85,0,0,0,.37.37l.07.07q5.44,5.5,10.9,11C80.07,80.31,80.26,80.57,80.48,80.81Z" transform="translate(-6.68 -6.62)"/><path class="cls-1" d="M60.65,60.66,68,68a1.65,1.65,0,0,1-.34-.31L61,61A2.83,2.83,0,0,1,60.65,60.66Z" transform="translate(-6.68 -6.62)"/><path class="cls-1" d="M68.83,68.87a1,1,0,0,1-.28-.29Z" transform="translate(-6.68 -6.62)"/><path class="cls-2" d="M38.91,38.86a3.67,3.67,0,0,0,.52.44s0,0,0,.06Z" transform="translate(-6.68 -6.62)"/><path class="cls-2" d="M60.55,60.43a.51.51,0,0,0,.12.33l-.28-.28Z" transform="translate(-6.68 -6.62)"/><path class="cls-2" d="M68.48,68.62l-.54-.53a.51.51,0,0,0,.35.06l.16.11A.54.54,0,0,0,68.48,68.62Z" transform="translate(-6.68 -6.62)"/><path class="cls-2" d="M61,61.08l7,7a2.1,2.1,0,0,1-.37-.36Z" transform="translate(-6.68 -6.62)"/><path class="cls-2" d="M68.88,69a1.85,1.85,0,0,1-.37-.37Z" transform="translate(-6.68 -6.62)"/><path class="cls-3" d="M68.49,68.19l-.16-.11a2.67,2.67,0,0,1-.3-1.39c0-1.52,0-3,0-4.58,0-.47.11-.65.62-.65,1.74,0,1.74,0,1.74,1.68v1.23a22.85,22.85,0,0,0,2.77-5.14A25.19,25.19,0,0,0,54.67,25.34a25.75,25.75,0,0,0-4.38-.48c-.45,0-.6-.12-.61-.58,0-1.77-.06-1.81,1.7-1.7A27.54,27.54,0,0,1,77.08,47a27.12,27.12,0,0,1-4.4,18.27,1.25,1.25,0,0,0-.37.78c.72,0,1.43,0,2.14,0,.37,0,.57.1.53.49v.08c.09,1.81.09,1.81-1.7,1.81-1.18,0-2.36,0-3.54,0A2.82,2.82,0,0,1,68.49,68.19Z" transform="translate(-6.68 -6.62)"/><path class="cls-3" d="M46.28,24.85c-1.14,0-1.14,0-1.14-1.3,0-1,0-1,1.35-1,1.14,0,1-.2,1,1.3C47.46,25,47.62,24.83,46.28,24.85Z" transform="translate(-6.68 -6.62)"/><path class="cls-3" d="M41.74,24.85c-1.15,0-1.15,0-1.15-1.28,0-1,0-1,1.32-1,1,0,1,0,1,1.36C42.9,24.85,42.9,24.85,41.74,24.85Z" transform="translate(-6.68 -6.62)"/><path class="cls-3" d="M27.27,34H25.05c-.18,0-.48.08-.49-.13a15,15,0,0,1,0-2c0-.25.3-.17.47-.17,1.74,0,3.48,0,5.22,0a1.07,1.07,0,0,1,1.2,1.19c0,1.74,0,3.48,0,5.23,0,.37-.11.49-.5.51-1.85.08-1.85.1-1.85-1.74V35.72a16.59,16.59,0,0,0-1.84,3A25.18,25.18,0,0,0,45.84,74.88a20,20,0,0,0,3.28.3c.43,0,.66.08.66.61,0,1.82,0,1.82-1.81,1.68A27.36,27.36,0,0,1,22.86,55.79,26.86,26.86,0,0,1,26.72,35l.48-.74S27.22,34.18,27.27,34Z" transform="translate(-6.68 -6.62)"/><path class="cls-3" d="M57.78,75.2c1.16,0,1.16,0,1.16,1.37,0,1,0,1-1.38,1-1,0-1,0-1-1.46C56.58,75,56.41,75.22,57.78,75.2Z" transform="translate(-6.68 -6.62)"/><path class="cls-3" d="M53.21,75.2c1.11,0,1.11,0,1.11,1.32,0,1,0,1-1.39,1-.92,0-.92,0-.92-1.45C52,75.2,52,75.2,53.21,75.2Z" transform="translate(-6.68 -6.62)"/><text class="cls-4" transform="translate(30.48 58.05)">P</text></svg>